<?xml version="1.0" standalone="no"?>
<!DOCTYPE svg PUBLIC "-//W3C//DTD SVG 20010904//EN"
 "http://www.w3.org/TR/2001/REC-SVG-20010904/DTD/svg10.dtd">
<svg version="1.0" xmlns="http://www.w3.org/2000/svg"
 width="481.000000pt" height="481.000000pt" viewBox="0 0 481.000000 481.000000"
 preserveAspectRatio="xMidYMid meet">
<metadata>
Created by potrace 1.14, written by Peter Selinger 2001-2017
</metadata>
<g transform="translate(0.000000,481.000000) scale(0.100000,-0.100000)"
fill="#000000" stroke="none">
<path d="M2380 3105 l0 -306 33 3 32 3 5 110 5 109 85 -109 c69 -88 92 -111
114 -113 16 -2 32 0 37 5 6 6 -26 55 -77 122 l-87 113 77 77 c42 42 76 82 76
89 0 7 -14 12 -33 12 -30 0 -44 -11 -113 -87 l-79 -87 -5 180 -5 179 -32 3
-33 3 0 -306z"/>
<path d="M1810 3152 c0 -210 1 -221 23 -263 78 -147 344 -121 386 38 7 26 10
116 9 240 l-3 198 -30 0 -30 0 -5 -210 c-6 -241 -11 -261 -80 -289 -50 -20
-69 -20 -119 0 -72 28 -75 41 -81 284 l-5 215 -32 3 -33 3 0 -219z"/>
<path d="M2891 3194 l-40 -35 -3 28 c-3 24 -8 28 -33 28 l-30 0 0 -205 0 -205
33 -3 32 -3 0 139 0 138 37 43 c34 41 39 43 80 38 43 -5 43 -4 43 28 0 57 -61
62 -119 9z"/>
<path d="M1102 2282 c-9 -7 -12 -70 -10 -283 l3 -274 30 0 30 0 5 250 c3 138
8 242 12 233 4 -10 46 -118 94 -240 48 -123 91 -229 97 -236 6 -7 22 -12 36
-10 24 3 34 23 126 246 54 133 103 242 107 242 4 0 8 -110 8 -245 l0 -245 30
0 30 0 -2 283 -3 282 -37 3 c-20 2 -46 -1 -56 -7 -12 -6 -52 -89 -107 -221
-48 -116 -91 -213 -95 -215 -5 -3 -45 88 -90 203 -45 114 -91 215 -102 225
-21 18 -83 23 -106 9z"/>
<path d="M1933 2131 c-65 -30 -97 -86 -102 -179 -2 -41 2 -92 8 -112 32 -107
137 -152 270 -117 47 13 68 34 58 60 -5 15 -10 15 -41 2 -48 -20 -145 -19
-175 1 -26 19 -51 71 -51 109 l0 25 134 0 c161 0 164 2 148 85 -14 69 -35 99
-88 125 -50 25 -107 25 -161 1z m144 -57 c23 -14 49 -77 38 -94 -3 -6 -49 -10
-106 -10 -113 0 -121 6 -94 63 29 62 100 80 162 41z"/>
<path d="M2412 2116 l-51 -34 -3 27 c-2 20 -9 27 -31 29 l-27 3 2 -208 3 -208
30 0 30 0 3 147 3 146 39 36 c43 39 73 45 107 21 33 -23 43 -75 43 -222 l0
-133 30 0 30 0 0 140 c0 156 5 173 65 210 41 25 66 25 96 1 23 -18 24 -26 29
-183 l5 -163 33 -3 33 -3 -3 175 c-3 197 -10 218 -81 245 -50 19 -96 8 -145
-34 -40 -35 -41 -35 -52 -15 -16 30 -70 60 -106 60 -20 0 -52 -13 -82 -34z"/>
<path d="M3115 2138 c-72 -25 -125 -114 -125 -210 0 -170 118 -253 288 -203
47 14 52 18 52 45 l0 29 -41 -14 c-68 -24 -142 -20 -178 10 -30 26 -34 34 -46
92 l-6 32 143 3 143 3 -1 61 c-1 47 -6 69 -24 94 -41 58 -131 84 -205 58z
m127 -61 c21 -14 41 -59 36 -84 -3 -16 -14 -18 -108 -18 l-105 0 3 25 c11 80
103 121 174 77z"/>
<path d="M3513 2135 c-36 -15 -73 -68 -73 -103 0 -53 36 -93 110 -122 62 -24
90 -49 90 -80 0 -58 -88 -80 -162 -40 -40 21 -54 14 -44 -24 7 -27 44 -45 106
-53 67 -8 136 24 155 71 34 80 11 124 -92 174 -43 20 -81 44 -86 53 -18 29 0
67 38 79 29 10 41 8 80 -9 39 -17 47 -18 52 -6 9 25 -5 45 -42 60 -43 19 -90
18 -132 0z"/>
</g>
</svg>
